<svg id="Layer_1" data-name="Layer 1" xmlns="http://www.w3.org/2000/svg" xmlns:xlink="http://www.w3.org/1999/xlink" viewBox="0 0 1262.74 364.39"><defs><style>.cls-1,.cls-2,.cls-3{fill-rule:evenodd;}.cls-1{fill:url(#linear-gradient);}.cls-2{fill:url(#linear-gradient-2);}.cls-3{fill:url(#linear-gradient-3);}.cls-4{fill:#fff;}.cls-5{fill:url(#linear-gradient-4);}.cls-6{fill:url(#linear-gradient-5);}.cls-7{fill:url(#linear-gradient-6);}.cls-8{fill:url(#linear-gradient-7);}</style><linearGradient id="linear-gradient" x1="-3875.71" y1="-1314.35" x2="-3824.29" y2="-1314.35" gradientTransform="matrix(0.29, 0.96, -0.96, 0.29, 255.98, 4125.6)" gradientUnits="userSpaceOnUse"><stop offset="0" stop-color="#0d79ff"/><stop offset="1" stop-color="#0cb3f5"/></linearGradient><linearGradient id="linear-gradient-2" x1="-2774.62" y1="4624.57" x2="-2774.62" y2="4215.93" gradientTransform="translate(-2541.93 4626.12) rotate(180)" gradientUnits="userSpaceOnUse"><stop offset="0" stop-color="#375c95"/><stop offset="0.48" stop-color="#0d95fa"/><stop offset="1" stop-color="#88bfe8"/></linearGradient><linearGradient id="linear-gradient-3" x1="-3415.52" y1="-1099.57" x2="-3371.65" y2="-1099.57" gradientTransform="translate(585.52 3905.95) rotate(63.74)" xlink:href="#linear-gradient"/><linearGradient id="linear-gradient-4" x1="506.88" y1="287.67" x2="556.77" y2="287.67" gradientUnits="userSpaceOnUse"><stop offset="0.11" stop-color="#0d79ff"/><stop offset="0.92" stop-color="#008cc3"/></linearGradient><linearGradient id="linear-gradient-5" x1="709.52" y1="287.67" x2="748.91" y2="287.67" xlink:href="#linear-gradient-4"/><linearGradient id="linear-gradient-6" x1="894.75" y1="288.12" x2="943.62" y2="288.12" xlink:href="#linear-gradient-4"/><linearGradient id="linear-gradient-7" x1="1096.69" y1="287.67" x2="1142.08" y2="287.67" xlink:href="#linear-gradient-4"/></defs><title>logo_masterminer_color</title><path class="cls-1" d="M357.23,66.93a25.71,25.71,0,1,0,17-32.13A25.71,25.71,0,0,0,357.23,66.93Z" transform="translate(-35.33 -33.66)"/><path class="cls-2" d="M93,178.94a37.91,37.91,0,1,0,1.13,64l34.17,38.24a23.14,23.14,0,1,0,9-7.78l-34.41-38.5a37.82,37.82,0,0,0-.83-48.2l35.61-42.31a22.85,22.85,0,0,0,20.75-.72L210.63,195a26,26,0,1,0,44.27.28l56.68-55.85a17.14,17.14,0,0,0,13,0l38.23,42.78a37.83,37.83,0,0,0-1.16,46.55L330.84,266a30.88,30.88,0,1,0,9.68,7l29.64-35.84a37.93,37.93,0,1,0,1.57-62.83l-38.4-43a17.19,17.19,0,1,0-30.55.09l-56.19,55.36a25.84,25.84,0,0,0-27.5-.17L167,135.35a22.95,22.95,0,1,0-38.44,1.37Z" transform="translate(-35.33 -33.66)"/><path class="cls-3" d="M50.44,385.81a21.93,21.93,0,1,0,10-29.38A21.94,21.94,0,0,0,50.44,385.81Z" transform="translate(-35.33 -33.66)"/><path class="cls-4" d="M527.27,148.76l19.86,51.52h.32l20-51.52h20.45v69.91H572.28V197.83l1.5-30.87-.32,0-20.87,51.76H542.1L521.33,167.1l-.32,0,1.5,30.68v20.84H506.88V148.76Z" transform="translate(-35.33 -33.66)"/><path class="cls-4" d="M644.33,203.59H617l-5.3,15.08H595.89l26.82-69.91h16l26.71,69.91H649.63Zm-23.5-11h19.64l-9.63-27.46h-.32Z" transform="translate(-35.33 -33.66)"/><path class="cls-4" d="M714.77,200.42a7.78,7.78,0,0,0-3.19-6.48q-3.18-2.45-11.16-4.61-13.92-3.6-21-8.55a15.62,15.62,0,0,1-7.12-13.54q0-8.59,8.16-14t20.85-5.45q12.85,0,20.93,6.12T730,169l-.11.29H714.77a9.71,9.71,0,0,0-3.61-7.85q-3.61-3-10.14-3-6.26,0-9.69,2.5a7.6,7.6,0,0,0-3.43,6.39q0,3.55,3.67,5.83T704.22,178q12.9,3.22,19.54,8.5a16.88,16.88,0,0,1,6.64,13.88q0,9-7.9,14.16t-20.85,5.18q-12.74,0-22.21-5.88t-9.21-16.49l.11-.29h15.2q0,6.24,4.25,9.15t11.86,2.9q6.37,0,9.74-2.35A7.31,7.31,0,0,0,714.77,200.42Z" transform="translate(-35.33 -33.66)"/><path class="cls-4" d="M796.07,159.56H774v59.1H758.39v-59.1H736.44v-10.8h59.63Z" transform="translate(-35.33 -33.66)"/><path class="cls-4" d="M852.7,187.94H820.42v19.92h37.73v10.8H804.79V148.76H858v10.8H820.42v17.57H852.7Z" transform="translate(-35.33 -33.66)"/><path class="cls-4" d="M883.37,190.72v27.94H867.74V148.76h29.38q13.33,0,20.85,5.45t7.52,15.2a14.31,14.31,0,0,1-3.16,9.31,22,22,0,0,1-9.26,6.29q6.91,1.83,9.93,6.1a17.84,17.84,0,0,1,3,10.56v5.14a23,23,0,0,0,.88,6.12,8.28,8.28,0,0,0,3,4.73v1H913.82a7.64,7.64,0,0,1-2.78-5.14,38.84,38.84,0,0,1-.64-6.82v-4.95q0-5.23-3.18-8.14t-9-2.91Zm0-10.8h13.49q6.58,0,9.82-2.5t3.24-7.39a9.63,9.63,0,0,0-3.24-7.63q-3.24-2.83-9.55-2.83H883.37Z" transform="translate(-35.33 -33.66)"/><path class="cls-4" d="M987.9,148.76l19.86,51.52h.32l20-51.52h20.45v69.91h-15.63V197.83l1.5-30.87-.32,0-20.87,51.76h-10.49L982,167.1l-.32,0,1.5,30.68v20.84H967.5V148.76Z" transform="translate(-35.33 -33.66)"/><path class="cls-4" d="M1079.74,218.67h-15.63V148.76h15.63Z" transform="translate(-35.33 -33.66)"/><path class="cls-4" d="M1158.32,218.67h-15.58l-31.47-47.77-.32,0v47.72h-15.63V148.76h15.63l31.47,47.72.32,0V148.76h15.58Z" transform="translate(-35.33 -33.66)"/><path class="cls-4" d="M1220.83,187.94h-32.27v19.92h37.73v10.8h-53.36V148.76h53.26v10.8h-37.63v17.57h32.27Z" transform="translate(-35.33 -33.66)"/><path class="cls-4" d="M1251.5,190.72v27.94h-15.63V148.76h29.38q13.33,0,20.85,5.45t7.52,15.2a14.31,14.31,0,0,1-3.16,9.31,22,22,0,0,1-9.26,6.29q6.9,1.83,9.93,6.1a17.83,17.83,0,0,1,3,10.56v5.14a22.94,22.94,0,0,0,.88,6.12,8.28,8.28,0,0,0,3,4.73v1H1282a7.64,7.64,0,0,1-2.78-5.14,38.84,38.84,0,0,1-.64-6.82v-4.95q0-5.23-3.18-8.14t-9-2.91Zm0-10.8H1265q6.58,0,9.82-2.5T1278,170a9.63,9.63,0,0,0-3.24-7.63q-3.24-2.83-9.55-2.83H1251.5Z" transform="translate(-35.33 -33.66)"/><path class="cls-5" d="M556.68,299.16l.09.25q-.89,9.21-7.32,14.49t-17.21,5.28q-11.39,0-18.38-7.38t-7-19.12v-10q0-11.7,7-19.12t18.38-7.43q10.88,0,17.26,5.17t7.27,14.56l-.09.25h-5.25q-1.13-7.61-5.84-11.65t-13.34-4q-9,0-14.37,6.22t-5.42,15.93v10q0,9.84,5.42,16t14.37,6.2q8.63,0,13.36-3.94t5.82-11.79Z" transform="translate(-35.33 -33.66)"/><path class="cls-6" d="M715.14,314h33.76v4.29H709.52V257.05h5.63Z" transform="translate(-35.33 -33.66)"/><path class="cls-7" d="M943.62,257.05v41.52q0,10-6.82,15.31t-17.8,5.3q-10.83,0-17.54-5.32t-6.71-15.29V257.05h5.63v41.49q0,7.82,5.16,12.09T919,314.89q8.44,0,13.74-4.25t5.3-12.11V257.05Z" transform="translate(-35.33 -33.66)"/><path class="cls-8" d="M1096.69,318.3V257.05h19.93q10.64,0,16.58,4t5.93,12.1a12.26,12.26,0,0,1-3,8.21,15.47,15.47,0,0,1-8.09,4.84,17,17,0,0,1,10.13,5.26,14.07,14.07,0,0,1,3.89,9.8q0,8.2-5.93,12.61t-15.87,4.41Zm5.58-33.78H1118q7.41,0,11.47-2.92t4.06-8.6q0-5.8-4.31-8.73t-12.57-2.92h-14.35Zm0,4.29V314h18q7.55,0,11.86-3.33a11.11,11.11,0,0,0,4.31-9.33,11.58,11.58,0,0,0-3.92-9q-3.92-3.52-11.37-3.52Z" transform="translate(-35.33 -33.66)"/></svg>