<?xml version="1.0" encoding="utf-8"?>
<!-- Generator: Adobe Illustrator 22.0.1, SVG Export Plug-In . SVG Version: 6.00 Build 0)  -->
<svg version="1.1" id="Layer_1" xmlns="http://www.w3.org/2000/svg" xmlns:xlink="http://www.w3.org/1999/xlink" x="0px" y="0px"
	 viewBox="0 0 1500 1500" style="enable-background:new 0 0 1500 1500;" xml:space="preserve">
<style type="text/css">
	.st0{fill-rule:evenodd;clip-rule:evenodd;fill:url(#SVGID_1_);}
	.st1{fill-rule:evenodd;clip-rule:evenodd;fill:url(#SVGID_2_);}
	.st2{fill:url(#SVGID_3_);}
	.st3{fill:url(#SVGID_4_);}
	.st4{fill:url(#SVGID_5_);}
	.st5{fill:url(#SVGID_6_);}
	.st6{fill-rule:evenodd;clip-rule:evenodd;fill:url(#SVGID_7_);}
</style>
<g>
	<g>
		<g>
			
				<linearGradient id="SVGID_1_" gradientUnits="userSpaceOnUse" x1="-3774.3147" y1="-1270.5027" x2="-3717.9165" y2="-1270.5027" gradientTransform="matrix(0.2937 0.9559 -0.9559 0.2937 825.3909 4423.248)">
				<stop  offset="0" style="stop-color:#0D79FF"/>
				<stop  offset="1" style="stop-color:#0CB3F5"/>
			</linearGradient>
			<path class="st0" d="M912.9,477.5c4.6,14.9,20.3,23.2,35.2,18.7c14.9-4.6,23.2-20.3,18.7-35.2c-4.6-14.9-20.3-23.3-35.2-18.7
				C916.6,446.8,908.3,462.6,912.9,477.5z"/>
			
				<linearGradient id="SVGID_2_" gradientUnits="userSpaceOnUse" x1="-3151.6079" y1="5288.5874" x2="-3151.6079" y2="4840.4287" gradientTransform="matrix(-1 0 0 -1 -2375.3333 5694.3691)">
				<stop  offset="0" style="stop-color:#375C95"/>
				<stop  offset="0.4759" style="stop-color:#0D95FA"/>
				<stop  offset="1" style="stop-color:#88BFE8"/>
			</linearGradient>
			<path class="st1" d="M623.1,600.3c-6.3-3.9-13.7-6.1-21.7-6.1c-23,0-41.6,18.6-41.6,41.6c0,23,18.6,41.6,41.6,41.6
				c8.5,0,16.3-2.5,22.9-6.9l37.5,41.9c-2.7,4-4.3,8.9-4.3,14.1c0,13.9,11.3,25.2,25.2,25.2c13.9,0,25.2-11.3,25.2-25.2
				c0-13.9-11.3-25.2-25.2-25.2c-3.9,0-7.7,0.9-11,2.5L634,661.6c5.7-7.1,9.1-16.1,9.1-25.9c0-10.3-3.8-19.7-10-27l39.1-46.4
				c3.2,1.5,6.8,2.4,10.6,2.4c4.4,0,8.6-1.1,12.2-3.1l57.2,56.4c-2.7,4.4-4.3,9.5-4.3,15c0,15.7,12.8,28.5,28.5,28.5
				s28.5-12.8,28.5-28.5c0-5.4-1.5-10.4-4.1-14.7l62.2-61.2c2.2,0.9,4.6,1.4,7.1,1.4c2.5,0,5-0.5,7.2-1.4l41.9,46.9
				c-5.9,7.2-9.4,16.4-9.4,26.4c0,9.3,3.1,17.8,8.2,24.7l-33.8,40.8c-4.3-2-9-3.1-14.1-3.1c-18.7,0-33.8,15.1-33.8,33.8
				c0,18.7,15.1,33.8,33.8,33.8c18.7,0,33.8-15.1,33.8-33.8c0-8.9-3.5-17-9.1-23l32.5-39.3c6.8,4.8,15.1,7.7,24.1,7.7
				c23,0,41.6-18.6,41.6-41.6c0-23-18.6-41.6-41.6-41.6c-8.2,0-15.9,2.4-22.4,6.6l-42.1-47.1c1.3-2.6,2.1-5.5,2.1-8.6
				c0-10.4-8.4-18.9-18.9-18.9c-10.4,0-18.9,8.4-18.9,18.9c0,3.1,0.8,6.1,2.1,8.7L791.5,609c-4.4-2.8-9.6-4.4-15.2-4.4
				c-5.5,0-10.6,1.6-14.9,4.3l-57.1-56.3c2.3-3.8,3.6-8.2,3.6-13c0-13.9-11.3-25.2-25.2-25.2c-13.9,0-25.2,11.3-25.2,25.2
				c0,5.4,1.7,10.4,4.6,14.4L623.1,600.3z"/>
		</g>
	</g>
	<g>
		<g>
			<path d="M376.9,888.6l19.9,51.5h0.3l20-51.5h20.4v69.9H422v-20.8l1.5-30.9l-0.3,0l-20.9,51.8h-10.5L371,906.9l-0.3,0l1.5,30.7
				v20.8h-15.6v-69.9H376.9z"/>
			<path d="M494,943.4h-27.4l-5.3,15.1h-15.8l26.8-69.9h16l26.7,69.9h-15.8L494,943.4z M470.5,932.4h19.6l-9.6-27.5h-0.3
				L470.5,932.4z"/>
			<path d="M564.4,940.2c0-2.7-1.1-4.8-3.2-6.5c-2.1-1.6-5.8-3.2-11.2-4.6c-9.3-2.4-16.3-5.2-21-8.5c-4.7-3.3-7.1-7.8-7.1-13.5
				s2.7-10.4,8.2-14c5.4-3.6,12.4-5.4,20.8-5.4c8.6,0,15.5,2,20.9,6.1c5.4,4.1,8,9.1,7.8,15.1l-0.1,0.3h-15.1c0-3.2-1.2-5.8-3.6-7.8
				s-5.8-3-10.1-3c-4.2,0-7.4,0.8-9.7,2.5c-2.3,1.7-3.4,3.8-3.4,6.4c0,2.4,1.2,4.3,3.7,5.8c2.4,1.5,6.7,3.1,12.7,4.8
				c8.6,2.1,15.1,5,19.5,8.5c4.4,3.5,6.6,8.1,6.6,13.9c0,6-2.6,10.7-7.9,14.2s-12.2,5.2-20.8,5.2c-8.5,0-15.9-2-22.2-5.9
				s-9.4-9.4-9.2-16.5l0.1-0.3h15.2c0,4.2,1.4,7.2,4.3,9.1c2.8,1.9,6.8,2.9,11.9,2.9c4.2,0,7.5-0.8,9.7-2.4
				C563.3,945,564.4,942.9,564.4,940.2z"/>
			<path d="M645.7,899.4h-22.1v59.1h-15.6v-59.1h-21.9v-10.8h59.6V899.4z"/>
			<path d="M702.4,927.8h-32.3v19.9h37.7v10.8h-53.4v-69.9h53.3v10.8h-37.6V917h32.3V927.8z"/>
			<path d="M733,930.5v27.9h-15.6v-69.9h29.4c8.9,0,15.8,1.8,20.8,5.4c5,3.6,7.5,8.7,7.5,15.2c0,3.6-1.1,6.7-3.2,9.3
				s-5.2,4.7-9.3,6.3c4.6,1.2,7.9,3.2,9.9,6.1c2,2.8,3,6.4,3,10.6v5.1c0,2,0.3,4,0.9,6.1c0.6,2.1,1.6,3.7,3,4.7v1h-16.1
				c-1.4-1-2.4-2.7-2.8-5.1c-0.4-2.4-0.6-4.7-0.6-6.8v-4.9c0-3.5-1.1-6.2-3.2-8.1c-2.1-1.9-5.1-2.9-9-2.9H733z M733,919.7h13.5
				c4.4,0,7.7-0.8,9.8-2.5c2.2-1.7,3.2-4.1,3.2-7.4c0-3.2-1.1-5.7-3.2-7.6c-2.2-1.9-5.3-2.8-9.6-2.8H733V919.7z"/>
			<path d="M837.6,888.6l19.9,51.5h0.3l20-51.5h20.4v69.9h-15.6v-20.8l1.5-30.9l-0.3,0l-20.9,51.8h-10.5l-20.8-51.6l-0.3,0l1.5,30.7
				v20.8h-15.6v-69.9H837.6z"/>
			<path d="M929.4,958.5h-15.6v-69.9h15.6V958.5z"/>
			<path d="M1008,958.5h-15.6l-31.5-47.8l-0.3,0v47.7H945v-69.9h15.6l31.5,47.7l0.3,0v-47.7h15.6V958.5z"/>
			<path d="M1070.5,927.8h-32.3v19.9h37.7v10.8h-53.4v-69.9h53.3v10.8h-37.6V917h32.3V927.8z"/>
			<path d="M1101.2,930.5v27.9h-15.6v-69.9h29.4c8.9,0,15.8,1.8,20.8,5.4c5,3.6,7.5,8.7,7.5,15.2c0,3.6-1.1,6.7-3.2,9.3
				s-5.2,4.7-9.3,6.3c4.6,1.2,7.9,3.2,9.9,6.1c2,2.8,3,6.4,3,10.6v5.1c0,2,0.3,4,0.9,6.1c0.6,2.1,1.6,3.7,3,4.7v1h-16.1
				c-1.4-1-2.4-2.7-2.8-5.1c-0.4-2.4-0.6-4.7-0.6-6.8v-4.9c0-3.5-1.1-6.2-3.2-8.1s-5.1-2.9-9-2.9H1101.2z M1101.2,919.7h13.5
				c4.4,0,7.7-0.8,9.8-2.5c2.2-1.7,3.2-4.1,3.2-7.4c0-3.2-1.1-5.7-3.2-7.6c-2.2-1.9-5.3-2.8-9.6-2.8h-13.8V919.7z"/>
		</g>
		<g>
			<linearGradient id="SVGID_3_" gradientUnits="userSpaceOnUse" x1="432.3991" y1="1027.4967" x2="482.295" y2="1027.4967">
				<stop  offset="0.1067" style="stop-color:#0D79FF"/>
				<stop  offset="0.9233" style="stop-color:#008CC3"/>
			</linearGradient>
			<path class="st2" d="M482.2,1039l0.1,0.3c-0.6,6.1-3,11-7.3,14.5c-4.3,3.5-10,5.3-17.2,5.3c-7.6,0-13.7-2.5-18.4-7.4
				c-4.7-4.9-7-11.3-7-19.1v-10c0-7.8,2.3-14.2,7-19.1c4.7-4.9,10.8-7.4,18.4-7.4c7.3,0,13,1.7,17.3,5.2c4.3,3.5,6.7,8.3,7.3,14.6
				l-0.1,0.3h-5.3c-0.8-5.1-2.7-9-5.8-11.7c-3.1-2.7-7.6-4-13.3-4c-6,0-10.8,2.1-14.4,6.2c-3.6,4.1-5.4,9.5-5.4,15.9v10
				c0,6.6,1.8,11.9,5.4,16c3.6,4.1,8.4,6.2,14.4,6.2c5.8,0,10.2-1.3,13.4-3.9c3.2-2.6,5.1-6.6,5.8-11.8H482.2z"/>
			<linearGradient id="SVGID_4_" gradientUnits="userSpaceOnUse" x1="635.0358" y1="1027.4967" x2="674.427" y2="1027.4967">
				<stop  offset="0.1067" style="stop-color:#0D79FF"/>
				<stop  offset="0.9233" style="stop-color:#008CC3"/>
			</linearGradient>
			<path class="st3" d="M640.7,1053.8h33.8v4.3H635v-61.2h5.6V1053.8z"/>
			<linearGradient id="SVGID_5_" gradientUnits="userSpaceOnUse" x1="820.2737" y1="1027.9382" x2="869.1376" y2="1027.9382">
				<stop  offset="0.1067" style="stop-color:#0D79FF"/>
				<stop  offset="0.9233" style="stop-color:#008CC3"/>
			</linearGradient>
			<path class="st4" d="M869.1,996.9v41.5c0,6.7-2.3,11.8-6.8,15.3s-10.5,5.3-17.8,5.3c-7.2,0-13.1-1.8-17.5-5.3
				c-4.5-3.5-6.7-8.6-6.7-15.3v-41.5h5.6v41.5c0,5.2,1.7,9.2,5.2,12.1c3.4,2.8,7.9,4.3,13.5,4.3c5.6,0,10.2-1.4,13.7-4.2
				c3.5-2.8,5.3-6.9,5.3-12.1v-41.5H869.1z"/>
			<linearGradient id="SVGID_6_" gradientUnits="userSpaceOnUse" x1="1022.2089" y1="1027.4967" x2="1067.6022" y2="1027.4967">
				<stop  offset="0.1067" style="stop-color:#0D79FF"/>
				<stop  offset="0.9233" style="stop-color:#008CC3"/>
			</linearGradient>
			<path class="st5" d="M1022.2,1058.1v-61.2h19.9c7.1,0,12.6,1.3,16.6,4s5.9,6.7,5.9,12.1c0,3.1-1,5.9-3,8.2
				c-2,2.3-4.7,3.9-8.1,4.8c4.2,0.7,7.5,2.4,10.1,5.3c2.6,2.8,3.9,6.1,3.9,9.8c0,5.5-2,9.7-5.9,12.6c-4,2.9-9.2,4.4-15.9,4.4H1022.2
				z M1027.8,1024.3h15.7c4.9,0,8.8-1,11.5-2.9c2.7-1.9,4.1-4.8,4.1-8.6c0-3.9-1.4-6.8-4.3-8.7c-2.9-1.9-7.1-2.9-12.6-2.9h-14.3
				V1024.3z M1027.8,1028.6v25.2h18c5,0,9-1.1,11.9-3.3c2.9-2.2,4.3-5.3,4.3-9.3c0-3.7-1.3-6.7-3.9-9c-2.6-2.3-6.4-3.5-11.4-3.5
				H1027.8z"/>
		</g>
	</g>
	
		<linearGradient id="SVGID_7_" gradientUnits="userSpaceOnUse" x1="-3221.6511" y1="-1005.5764" x2="-3173.5332" y2="-1005.5764" gradientTransform="matrix(0.4425 0.8968 -0.8968 0.4425 1110.9596 4129.0483)">
		<stop  offset="0" style="stop-color:#0D79FF"/>
		<stop  offset="1" style="stop-color:#0CB3F5"/>
	</linearGradient>
	<path class="st6" d="M576.4,827.2c5.9,11.9,20.3,16.8,32.2,10.9c11.9-5.9,16.8-20.3,10.9-32.2c-5.9-11.9-20.3-16.8-32.2-10.9
		C575.4,800.9,570.5,815.3,576.4,827.2z"/>
</g>
</svg>
