<?xml version="1.0" encoding="utf-8"?>
<!-- Generator: Adobe Illustrator 22.1.0, SVG Export Plug-In . SVG Version: 6.00 Build 0)  -->
<svg version="1.1" id="Layer_1" xmlns="http://www.w3.org/2000/svg" xmlns:xlink="http://www.w3.org/1999/xlink" x="0px" y="0px"
	 viewBox="0 0 886.6 695.8" style="enable-background:new 0 0 886.6 695.8;" xml:space="preserve">
<style type="text/css">
	.st0{fill:url(#SVGID_1_);}
	.st1{fill:url(#SVGID_2_);}
	.st2{fill:url(#SVGID_3_);}
	.st3{fill:url(#SVGID_4_);}
	.st4{fill:url(#SVGID_5_);}
	.st5{fill:url(#SVGID_6_);}
	.st6{fill:url(#SVGID_7_);}
</style>
<g>
	<g>
		<g>
			
				<linearGradient id="SVGID_1_" gradientUnits="userSpaceOnUse" x1="-4104.0176" y1="1690.3229" x2="-4047.6482" y2="1690.3229" gradientTransform="matrix(0.2937 0.9559 0.9559 -0.2937 216.1887 4455.7319)">
				<stop  offset="0" style="stop-color:#0D79FF"/>
				<stop  offset="1" style="stop-color:#0CB3F5"/>
			</linearGradient>
			<path class="st0" d="M608,71.6c4.6,14.9,20.3,23.2,35.2,18.7c14.9-4.6,23.2-20.3,18.7-35.2c-4.6-14.9-20.3-23.3-35.2-18.7
				C611.7,40.9,603.4,56.7,608,71.6z"/>
			
				<linearGradient id="SVGID_2_" gradientUnits="userSpaceOnUse" x1="-2568.6467" y1="-4902.5112" x2="-2568.6467" y2="-4454.3525" gradientTransform="matrix(-1 0 0 1 -2097.1604 4902.3691)">
				<stop  offset="0" style="stop-color:#375C95"/>
				<stop  offset="0.4759" style="stop-color:#0D95FA"/>
				<stop  offset="1" style="stop-color:#88BFE8"/>
			</linearGradient>
			<path class="st1" d="M318.2,194.4c-6.3-3.9-13.7-6.1-21.7-6.1c-23,0-41.6,18.6-41.6,41.6s18.6,41.6,41.6,41.6
				c8.5,0,16.3-2.5,22.9-6.9l37.5,41.9c-2.7,4-4.3,8.9-4.3,14.1c0,13.9,11.3,25.2,25.2,25.2s25.2-11.3,25.2-25.2
				s-11.3-25.2-25.2-25.2c-3.9,0-7.7,0.9-11,2.5l-37.7-42.2c5.7-7.1,9.1-16.1,9.1-25.9c0-10.3-3.8-19.7-10-27l39.1-46.4
				c3.2,1.5,6.8,2.4,10.6,2.4c4.4,0,8.6-1.1,12.2-3.1l57.2,56.4c-2.7,4.4-4.3,9.5-4.3,15c0,15.7,12.8,28.5,28.5,28.5
				s28.5-12.8,28.5-28.5c0-5.4-1.5-10.4-4.1-14.7l62.2-61.2c2.2,0.9,4.6,1.4,7.1,1.4s5-0.5,7.2-1.4l41.9,46.9
				c-5.9,7.2-9.4,16.4-9.4,26.4c0,9.3,3.1,17.8,8.2,24.7L579.3,290c-4.3-2-9-3.1-14.1-3.1c-18.7,0-33.8,15.1-33.8,33.8
				s15.1,33.8,33.8,33.8s33.8-15.1,33.8-33.8c0-8.9-3.5-17-9.1-23l32.5-39.3c6.8,4.8,15.1,7.7,24.1,7.7c23,0,41.6-18.6,41.6-41.6
				s-18.6-41.6-41.6-41.6c-8.2,0-15.9,2.4-22.4,6.6L582,142.4c1.3-2.6,2.1-5.5,2.1-8.6c0-10.4-8.4-18.9-18.9-18.9
				c-10.4,0-18.9,8.4-18.9,18.9c0,3.1,0.8,6.1,2.1,8.7l-61.8,60.6c-4.4-2.8-9.6-4.4-15.2-4.4c-5.5,0-10.6,1.6-14.9,4.3l-57.1-56.3
				c2.3-3.8,3.6-8.2,3.6-13c0-13.9-11.3-25.2-25.2-25.2s-25.2,11.3-25.2,25.2c0,5.4,1.7,10.4,4.6,14.4L318.2,194.4z"/>
		</g>
	</g>
	<g>
		<g>
			<path d="M72,482.7l19.9,51.5h0.3l20-51.5h20.4v69.9h-15.5v-20.8l1.5-30.9h-0.3l-20.9,51.8H86.9L66.1,501h-0.3l1.5,30.7v20.8H51.7
				v-69.9L72,482.7L72,482.7z"/>
			<path d="M189.1,537.5h-27.4l-5.3,15.1h-15.8l26.8-69.9h16l26.7,69.9h-15.8L189.1,537.5z M165.6,526.5h19.6l-9.6-27.5h-0.3
				L165.6,526.5z"/>
			<path d="M259.5,534.3c0-2.7-1.1-4.8-3.2-6.5c-2.1-1.6-5.8-3.2-11.2-4.6c-9.3-2.4-16.3-5.2-21-8.5c-4.7-3.3-7.1-7.8-7.1-13.5
				s2.7-10.4,8.2-14c5.4-3.6,12.4-5.4,20.8-5.4c8.6,0,15.5,2,20.9,6.1s8,9.1,7.8,15.1l-0.1,0.3h-15.1c0-3.2-1.2-5.8-3.6-7.8
				s-5.8-3-10.1-3c-4.2,0-7.4,0.8-9.7,2.5s-3.4,3.8-3.4,6.4c0,2.4,1.2,4.3,3.7,5.8c2.4,1.5,6.7,3.1,12.7,4.8
				c8.6,2.1,15.1,5,19.5,8.5s6.6,8.1,6.6,13.9c0,6-2.6,10.7-7.9,14.2s-12.2,5.2-20.8,5.2c-8.5,0-15.9-2-22.2-5.9s-9.4-9.4-9.2-16.5
				l0.1-0.3h15.2c0,4.2,1.4,7.2,4.3,9.1c2.8,1.9,6.8,2.9,11.9,2.9c4.2,0,7.5-0.8,9.7-2.4C258.4,539.1,259.5,537,259.5,534.3z"/>
			<path d="M340.8,493.5h-22.1v59.1h-15.6v-59.1h-21.9v-10.8h59.6V493.5z"/>
			<path d="M397.5,521.9h-32.3v19.9h37.7v10.8h-53.4v-69.9h53.3v10.8h-37.6v17.6h32.3V521.9z"/>
			<path d="M428.1,524.6v27.9h-15.6v-69.9h29.4c8.9,0,15.8,1.8,20.8,5.4c5,3.6,7.5,8.7,7.5,15.2c0,3.6-1.1,6.7-3.2,9.3
				c-2.1,2.6-5.2,4.7-9.3,6.3c4.6,1.2,7.9,3.2,9.9,6.1c2,2.8,3,6.4,3,10.6v5.1c0,2,0.3,4,0.9,6.1c0.6,2.1,1.6,3.7,3,4.7v1h-16.1
				c-1.4-1-2.4-2.7-2.8-5.1c-0.4-2.4-0.6-4.7-0.6-6.8v-4.9c0-3.5-1.1-6.2-3.2-8.1c-2.1-1.9-5.1-2.9-9-2.9L428.1,524.6L428.1,524.6z
				 M428.1,513.8h13.5c4.4,0,7.7-0.8,9.8-2.5c2.2-1.7,3.2-4.1,3.2-7.4c0-3.2-1.1-5.7-3.2-7.6c-2.2-1.9-5.3-2.8-9.6-2.8h-13.7V513.8z
				"/>
			<path d="M532.7,482.7l19.9,51.5h0.3l20-51.5h20.4v69.9h-15.6v-20.8l1.5-30.9h-0.3L558,552.7h-10.5l-20.8-51.6h-0.3l1.5,30.7v20.8
				h-15.6v-69.9H532.7z"/>
			<path d="M624.5,552.6h-15.6v-69.9h15.6V552.6z"/>
			<path d="M703.1,552.6h-15.6L656,504.8h-0.3v47.7h-15.6v-69.9h15.6l31.5,47.7h0.3v-47.7h15.6L703.1,552.6L703.1,552.6z"/>
			<path d="M765.6,521.9h-32.3v19.9H771v10.8h-53.4v-69.9h53.3v10.8h-37.6v17.6h32.3V521.9z"/>
			<path d="M796.3,524.6v27.9h-15.6v-69.9h29.4c8.9,0,15.8,1.8,20.8,5.4c5,3.6,7.5,8.7,7.5,15.2c0,3.6-1.1,6.7-3.2,9.3
				c-2.1,2.6-5.2,4.7-9.3,6.3c4.6,1.2,7.9,3.2,9.9,6.1c2,2.8,3,6.4,3,10.6v5.1c0,2,0.3,4,0.9,6.1s1.6,3.7,3,4.7v1h-16.1
				c-1.4-1-2.4-2.7-2.8-5.1c-0.4-2.4-0.6-4.7-0.6-6.8v-4.9c0-3.5-1.1-6.2-3.2-8.1s-5.1-2.9-9-2.9L796.3,524.6L796.3,524.6z
				 M796.3,513.8h13.5c4.4,0,7.7-0.8,9.8-2.5c2.2-1.7,3.2-4.1,3.2-7.4c0-3.2-1.1-5.7-3.2-7.6c-2.2-1.9-5.3-2.8-9.6-2.8h-13.8
				L796.3,513.8L796.3,513.8z"/>
		</g>
		<g>
			
				<linearGradient id="SVGID_3_" gradientUnits="userSpaceOnUse" x1="127.4864" y1="66.4762" x2="177.3824" y2="66.4762" gradientTransform="matrix(1 0 0 -1 0 688.1526)">
				<stop  offset="0.1067" style="stop-color:#0D79FF"/>
				<stop  offset="0.9233" style="stop-color:#008CC3"/>
			</linearGradient>
			<path class="st2" d="M177.3,633.1l0.1,0.3c-0.6,6.1-3,11-7.3,14.5s-10,5.3-17.2,5.3c-7.6,0-13.7-2.5-18.4-7.4
				c-4.7-4.9-7-11.3-7-19.1v-10c0-7.8,2.3-14.2,7-19.1c4.7-4.9,10.8-7.4,18.4-7.4c7.3,0,13,1.7,17.3,5.2s6.7,8.3,7.3,14.6l-0.1,0.3
				h-5.3c-0.8-5.1-2.7-9-5.8-11.7c-3.1-2.7-7.6-4-13.3-4c-6,0-10.8,2.1-14.4,6.2c-3.6,4.1-5.4,9.5-5.4,15.9v10
				c0,6.6,1.8,11.9,5.4,16s8.4,6.2,14.4,6.2c5.8,0,10.2-1.3,13.4-3.9c3.2-2.6,5.1-6.6,5.8-11.8L177.3,633.1L177.3,633.1z"/>
			
				<linearGradient id="SVGID_4_" gradientUnits="userSpaceOnUse" x1="330.0864" y1="66.5762" x2="369.4776" y2="66.5762" gradientTransform="matrix(1 0 0 -1 0 688.1526)">
				<stop  offset="0.1067" style="stop-color:#0D79FF"/>
				<stop  offset="0.9233" style="stop-color:#008CC3"/>
			</linearGradient>
			<path class="st3" d="M335.8,647.9h33.8v4.3h-39.5V591h5.6v56.9H335.8z"/>
			
				<linearGradient id="SVGID_5_" gradientUnits="userSpaceOnUse" x1="515.3864" y1="66.1262" x2="564.2503" y2="66.1262" gradientTransform="matrix(1 0 0 -1 0 688.1526)">
				<stop  offset="0.1067" style="stop-color:#0D79FF"/>
				<stop  offset="0.9233" style="stop-color:#008CC3"/>
			</linearGradient>
			<path class="st4" d="M564.2,591v41.5c0,6.7-2.3,11.8-6.8,15.3s-10.5,5.3-17.8,5.3c-7.2,0-13.1-1.8-17.5-5.3
				c-4.5-3.5-6.7-8.6-6.7-15.3V591h5.6v41.5c0,5.2,1.7,9.2,5.2,12.1c3.4,2.8,7.9,4.3,13.5,4.3s10.2-1.4,13.7-4.2
				c3.5-2.8,5.3-6.9,5.3-12.1v-41.5h5.5V591z"/>
			
				<linearGradient id="SVGID_6_" gradientUnits="userSpaceOnUse" x1="717.2864" y1="66.5763" x2="762.6797" y2="66.5763" gradientTransform="matrix(1 0 0 -1 0 688.1526)">
				<stop  offset="0.1067" style="stop-color:#0D79FF"/>
				<stop  offset="0.9233" style="stop-color:#008CC3"/>
			</linearGradient>
			<path class="st5" d="M717.3,652.2V591h19.9c7.1,0,12.6,1.3,16.6,4s5.9,6.7,5.9,12.1c0,3.1-1,5.9-3,8.2s-4.7,3.9-8.1,4.8
				c4.2,0.7,7.5,2.4,10.1,5.3c2.6,2.8,3.9,6.1,3.9,9.8c0,5.5-2,9.7-5.9,12.6c-4,2.9-9.2,4.4-15.9,4.4L717.3,652.2L717.3,652.2z
				 M722.9,618.4h15.7c4.9,0,8.8-1,11.5-2.9s4.1-4.8,4.1-8.6c0-3.9-1.4-6.8-4.3-8.7s-7.1-2.9-12.6-2.9H723L722.9,618.4L722.9,618.4z
				 M722.9,622.7v25.2h18c5,0,9-1.1,11.9-3.3c2.9-2.2,4.3-5.3,4.3-9.3c0-3.7-1.3-6.7-3.9-9s-6.4-3.5-11.4-3.5L722.9,622.7
				L722.9,622.7z"/>
		</g>
	</g>
	
		<linearGradient id="SVGID_7_" gradientUnits="userSpaceOnUse" x1="-3596.4729" y1="1504.2125" x2="-3548.3982" y2="1504.2125" gradientTransform="matrix(0.4425 0.8968 0.8968 -0.4425 524.7999 4279.8755)">
		<stop  offset="0" style="stop-color:#0D79FF"/>
		<stop  offset="1" style="stop-color:#0CB3F5"/>
	</linearGradient>
	<path class="st6" d="M271.5,421.3c5.9,11.9,20.3,16.8,32.2,10.9c11.9-5.9,16.8-20.3,10.9-32.2c-5.9-11.9-20.3-16.8-32.2-10.9
		C270.5,395,265.6,409.4,271.5,421.3z"/>
</g>
<text transform="matrix(1 0 0 1 -489.2296 -27.7037)" style="font-family:'MyriadPro-Regular'; font-size:12px;">/Users/josano/Desktop/projects/MMC/www/masterminer-website2.0/public/assets/img/main_logo.svg</text>
</svg>
