<?xml version="1.0" encoding="utf-8"?>
<!-- Generator: Adobe Illustrator 22.0.1, SVG Export Plug-In . SVG Version: 6.00 Build 0)  -->
<svg version="1.1" id="Layer_1" xmlns="http://www.w3.org/2000/svg" xmlns:xlink="http://www.w3.org/1999/xlink" x="0px" y="0px"
	 viewBox="0 0 1500 684" style="enable-background:new 0 0 1500 684;" xml:space="preserve">
<style type="text/css">
	.st0{fill-rule:evenodd;clip-rule:evenodd;fill:#FFFFFF;}
	.st1{fill:#FFFFFF;}
</style>
<g>
	<g>
		<g>
			<g>
				<path class="st0" d="M440.5,193.1c4.2,13.6,18.6,21.2,32.1,17c13.6-4.2,21.2-18.6,17-32.1c-4.2-13.6-18.5-21.2-32.1-17
					C444,165.1,436.4,179.5,440.5,193.1z"/>
				<path class="st0" d="M176.3,305.1c-5.8-3.5-12.5-5.6-19.8-5.6c-20.9,0-37.9,17-37.9,37.9c0,20.9,17,37.9,37.9,37.9
					c7.7,0,14.9-2.3,20.9-6.3l34.2,38.2c-2.5,3.7-3.9,8.1-3.9,12.9c0,12.7,10.3,23,23,23c12.7,0,23-10.3,23-23c0-12.7-10.3-23-23-23
					c-3.6,0-7,0.8-10,2.3L186.2,361c5.2-6.5,8.3-14.7,8.3-23.6c0-9.4-3.4-18-9.1-24.6l35.6-42.3c2.9,1.4,6.2,2.1,9.7,2.1
					c4,0,7.8-1,11.1-2.9l52.2,51.4c-2.5,4-3.9,8.7-3.9,13.7c0,14.4,11.6,26,26,26c14.4,0,26-11.6,26-26c0-4.9-1.4-9.5-3.8-13.4
					l56.7-55.8c2,0.8,4.2,1.3,6.4,1.3c2.3,0,4.5-0.5,6.5-1.3l38.2,42.8c-5.4,6.5-8.6,14.9-8.6,24.1c0,8.4,2.8,16.2,7.4,22.5
					l-30.8,37.2c-3.9-1.8-8.2-2.8-12.8-2.8c-17,0-30.8,13.8-30.8,30.8c0,17,13.8,30.8,30.8,30.8c17,0,30.8-13.8,30.8-30.8
					c0-8.1-3.2-15.5-8.3-21l29.6-35.8c6.2,4.4,13.8,7,22,7c20.9,0,37.9-17,37.9-37.9c0-20.9-17-37.9-37.9-37.9
					c-7.5,0-14.5,2.2-20.4,6l-38.4-43c1.2-2.3,1.9-5,1.9-7.8c0-9.5-7.7-17.2-17.2-17.2c-9.5,0-17.2,7.7-17.2,17.2
					c0,2.9,0.7,5.5,1.9,7.9l-56.2,55.4c-4-2.5-8.8-4-13.9-4c-5,0-9.7,1.4-13.6,3.9l-52.1-51.3c2.1-3.5,3.3-7.5,3.3-11.8
					c0-12.7-10.3-23-23-23c-12.7,0-23,10.3-23,23c0,4.9,1.6,9.4,4.2,13.2L176.3,305.1z"/>
			</g>
		</g>
		<path class="st0" d="M133.7,511.9c5.4,10.9,18.5,15.3,29.4,10c10.9-5.4,15.3-18.5,10-29.4c-5.4-10.9-18.5-15.3-29.4-10
			C132.8,487.9,128.4,501.1,133.7,511.9z"/>
	</g>
	<g>
		<g>
			<path class="st1" d="M610.6,274.9l19.9,51.5h0.3l20-51.5h20.4v69.9h-15.6V324l1.5-30.9l-0.3,0l-20.9,51.8h-10.5l-20.8-51.6
				l-0.3,0l1.5,30.7v20.8h-15.6v-69.9H610.6z"/>
			<path class="st1" d="M727.6,329.7h-27.4l-5.3,15.1h-15.8l26.8-69.9h16l26.7,69.9h-15.8L727.6,329.7z M704.1,318.7h19.6l-9.6-27.5
				h-0.3L704.1,318.7z"/>
			<path class="st1" d="M798.1,326.5c0-2.7-1.1-4.8-3.2-6.5c-2.1-1.6-5.8-3.2-11.2-4.6c-9.3-2.4-16.3-5.2-21-8.5
				c-4.7-3.3-7.1-7.8-7.1-13.5s2.7-10.4,8.2-14c5.4-3.6,12.4-5.4,20.8-5.4c8.6,0,15.5,2,20.9,6.1c5.4,4.1,8,9.1,7.8,15.1l-0.1,0.3
				h-15.1c0-3.2-1.2-5.8-3.6-7.8s-5.8-3-10.1-3c-4.2,0-7.4,0.8-9.7,2.5c-2.3,1.7-3.4,3.8-3.4,6.4c0,2.4,1.2,4.3,3.7,5.8
				c2.4,1.5,6.7,3.1,12.7,4.8c8.6,2.1,15.1,5,19.5,8.5c4.4,3.5,6.6,8.1,6.6,13.9c0,6-2.6,10.7-7.9,14.2s-12.2,5.2-20.8,5.2
				c-8.5,0-15.9-2-22.2-5.9s-9.4-9.4-9.2-16.5l0.1-0.3h15.2c0,4.2,1.4,7.2,4.3,9.1c2.8,1.9,6.8,2.9,11.9,2.9c4.2,0,7.5-0.8,9.7-2.4
				C796.9,331.3,798.1,329.2,798.1,326.5z"/>
			<path class="st1" d="M879.4,285.7h-22.1v59.1h-15.6v-59.1h-21.9v-10.8h59.6V285.7z"/>
			<path class="st1" d="M936,314.1h-32.3V334h37.7v10.8h-53.4v-69.9h53.3v10.8h-37.6v17.6H936V314.1z"/>
			<path class="st1" d="M966.7,316.8v27.9H951v-69.9h29.4c8.9,0,15.8,1.8,20.8,5.4c5,3.6,7.5,8.7,7.5,15.2c0,3.6-1.1,6.7-3.2,9.3
				s-5.2,4.7-9.3,6.3c4.6,1.2,7.9,3.2,9.9,6.1c2,2.8,3,6.4,3,10.6v5.1c0,2,0.3,4,0.9,6.1c0.6,2.1,1.6,3.7,3,4.7v1h-16.1
				c-1.4-1-2.4-2.7-2.8-5.1c-0.4-2.4-0.6-4.7-0.6-6.8v-4.9c0-3.5-1.1-6.2-3.2-8.1c-2.1-1.9-5.1-2.9-9-2.9H966.7z M966.7,306h13.5
				c4.4,0,7.7-0.8,9.8-2.5c2.2-1.7,3.2-4.1,3.2-7.4c0-3.2-1.1-5.7-3.2-7.6c-2.2-1.9-5.3-2.8-9.6-2.8h-13.8V306z"/>
			<path class="st1" d="M1071.2,274.9l19.9,51.5h0.3l20-51.5h20.4v69.9h-15.6V324l1.5-30.9l-0.3,0l-20.9,51.8H1086l-20.8-51.6
				l-0.3,0l1.5,30.7v20.8h-15.6v-69.9H1071.2z"/>
			<path class="st1" d="M1163,344.8h-15.6v-69.9h15.6V344.8z"/>
			<path class="st1" d="M1241.6,344.8H1226l-31.5-47.8l-0.3,0v47.7h-15.6v-69.9h15.6l31.5,47.7l0.3,0v-47.7h15.6V344.8z"/>
			<path class="st1" d="M1304.1,314.1h-32.3V334h37.7v10.8h-53.4v-69.9h53.3v10.8h-37.6v17.6h32.3V314.1z"/>
			<path class="st1" d="M1334.8,316.8v27.9h-15.6v-69.9h29.4c8.9,0,15.8,1.8,20.8,5.4c5,3.6,7.5,8.7,7.5,15.2c0,3.6-1.1,6.7-3.2,9.3
				s-5.2,4.7-9.3,6.3c4.6,1.2,7.9,3.2,9.9,6.1c2,2.8,3,6.4,3,10.6v5.1c0,2,0.3,4,0.9,6.1c0.6,2.1,1.6,3.7,3,4.7v1h-16.1
				c-1.4-1-2.4-2.7-2.8-5.1c-0.4-2.4-0.6-4.7-0.6-6.8v-4.9c0-3.5-1.1-6.2-3.2-8.1s-5.1-2.9-9-2.9H1334.8z M1334.8,306h13.5
				c4.4,0,7.7-0.8,9.8-2.5c2.2-1.7,3.2-4.1,3.2-7.4c0-3.2-1.1-5.7-3.2-7.6c-2.2-1.9-5.3-2.8-9.6-2.8h-13.8V306z"/>
		</g>
		<g>
			<path class="st1" d="M640,425.3l0.1,0.3c-0.6,6.1-3,11-7.3,14.5c-4.3,3.5-10,5.3-17.2,5.3c-7.6,0-13.7-2.5-18.4-7.4
				c-4.7-4.9-7-11.3-7-19.1v-10c0-7.8,2.3-14.2,7-19.1c4.7-4.9,10.8-7.4,18.4-7.4c7.3,0,13,1.7,17.3,5.2c4.3,3.5,6.7,8.3,7.3,14.6
				l-0.1,0.3h-5.3c-0.8-5.1-2.7-9-5.8-11.7c-3.1-2.7-7.6-4-13.3-4c-6,0-10.8,2.1-14.4,6.2c-3.6,4.1-5.4,9.5-5.4,15.9v10
				c0,6.6,1.8,11.9,5.4,16c3.6,4.1,8.4,6.2,14.4,6.2c5.8,0,10.2-1.3,13.4-3.9c3.2-2.6,5.1-6.6,5.8-11.8H640z"/>
			<path class="st1" d="M798.4,440.1h33.8v4.3h-39.4v-61.2h5.6V440.1z"/>
			<path class="st1" d="M1026.9,383.2v41.5c0,6.7-2.3,11.8-6.8,15.3c-4.5,3.5-10.5,5.3-17.8,5.3c-7.2,0-13.1-1.8-17.5-5.3
				c-4.5-3.5-6.7-8.6-6.7-15.3v-41.5h5.6v41.5c0,5.2,1.7,9.2,5.2,12.1c3.4,2.8,7.9,4.3,13.5,4.3c5.6,0,10.2-1.4,13.7-4.2
				c3.5-2.8,5.3-6.9,5.3-12.1v-41.5H1026.9z"/>
			<path class="st1" d="M1180,444.4v-61.2h19.9c7.1,0,12.6,1.3,16.6,4c4,2.7,5.9,6.7,5.9,12.1c0,3.1-1,5.9-3,8.2
				c-2,2.3-4.7,3.9-8.1,4.8c4.2,0.7,7.5,2.4,10.1,5.3c2.6,2.8,3.9,6.1,3.9,9.8c0,5.5-2,9.7-5.9,12.6c-4,2.9-9.2,4.4-15.9,4.4H1180z
				 M1185.6,410.6h15.7c4.9,0,8.8-1,11.5-2.9c2.7-1.9,4.1-4.8,4.1-8.6c0-3.9-1.4-6.8-4.3-8.7c-2.9-1.9-7.1-2.9-12.6-2.9h-14.3V410.6
				z M1185.6,414.9v25.2h18c5,0,9-1.1,11.9-3.3c2.9-2.2,4.3-5.3,4.3-9.3c0-3.7-1.3-6.7-3.9-9c-2.6-2.3-6.4-3.5-11.4-3.5H1185.6z"/>
		</g>
	</g>
</g>
</svg>
